<?xml version="1.0" encoding="UTF-8"?><svg id="Layer_1" xmlns="http://www.w3.org/2000/svg" viewBox="0 0 1645.69 925.7"><defs><style>.cls-1{letter-spacing:.1em;}.cls-2{letter-spacing:.08em;}.cls-3{font-family:Lato-Heavy, Lato;font-size:135.27px;font-weight:800;}.cls-3,.cls-4,.cls-5{fill:#fff;}.cls-4{font-family:Lato-Regular, Lato;font-size:90.18px;}.cls-6{letter-spacing:.06em;}.cls-5{stroke-width:0px;}</style></defs><text class="cls-3" transform="translate(477.4 455.55)"><tspan class="cls-2" x="0" y="0">C</tspan><tspan class="cls-1" x="100.5" y="0">OMMUNIT</tspan><tspan class="cls-6" x="890.46" y="0">Y</tspan></text><text class="cls-4" transform="translate(481.82 562.64)"><tspan x="0" y="0">science museum</tspan></text><path class="cls-5" d="m146.31,406.39c.27-26.07,20.5-47.13,46.48-48.4,27.54-1.35,50.09,18.18,51.51,46.2,1.29,25.55,8.65,48.79,30.29,62.79,14.04,9.08,31.53,14.98,48.18,17.4,29.65,4.3,49.89,23.38,48.94,51.15-.92,26.73-22.14,47.45-48.92,47.76-26.95.31-47.63-19.95-49.63-48.64-3.3-47.18-31.45-75.24-78.73-78.48-28.85-1.98-48.4-22.21-48.12-49.77Z"/><path class="cls-5" d="m368.37,456.13c-27.59.3-49.5-20.87-49.69-48.03-.2-28.26,21.46-50.34,49.31-50.26,27.08.07,49.15,22.08,49.2,49.04.04,27.25-21.47,48.96-48.82,49.25Z"/></svg>