<?xml version="1.0" encoding="UTF-8"?><svg id="Layer_1" xmlns="http://www.w3.org/2000/svg" viewBox="0 0 1312.35 227.38"><defs><style>.cls-1{stroke-width:0px;}.cls-2{isolation:isolate;}</style></defs><g class="cls-2"><g class="cls-2"><path class="cls-1" d="M409.32,75.74c1.13,0,2.07.41,2.84,1.22l8.05,8.59c-3.97,5.05-8.89,8.88-14.78,11.5-5.88,2.62-12.88,3.92-21,3.92-7.35,0-13.96-1.25-19.82-3.75-5.86-2.5-10.84-5.99-14.95-10.45-4.1-4.46-7.26-9.76-9.47-15.89-2.21-6.13-3.31-12.83-3.31-20.09,0-4.87.53-9.5,1.59-13.9,1.06-4.4,2.6-8.44,4.63-12.14,2.03-3.7,4.47-7.03,7.34-10.01s6.1-5.51,9.71-7.61c3.61-2.1,7.54-3.7,11.8-4.8,4.26-1.1,8.8-1.66,13.63-1.66,3.61,0,7.02.32,10.25.95,3.22.63,6.23,1.51,9.03,2.64,2.79,1.13,5.38,2.49,7.74,4.09,2.37,1.6,4.5,3.35,6.39,5.24l-6.83,9.33c-.41.59-.92,1.11-1.55,1.56-.63.45-1.49.68-2.57.68s-2.18-.38-3.28-1.15c-1.11-.77-2.46-1.62-4.06-2.57-1.6-.95-3.61-1.8-6.02-2.57s-5.47-1.15-9.16-1.15c-4.1,0-7.87.74-11.29,2.23-3.43,1.49-6.37,3.64-8.83,6.46-2.46,2.82-4.36,6.28-5.71,10.38-1.35,4.1-2.03,8.77-2.03,14s.73,9.98,2.2,14.1c1.46,4.13,3.47,7.61,6.02,10.45,2.55,2.84,5.52,5,8.93,6.46,3.4,1.47,7.04,2.2,10.92,2.2,2.3,0,4.38-.11,6.26-.34,1.87-.22,3.61-.61,5.21-1.15,1.6-.54,3.11-1.24,4.53-2.1,1.42-.86,2.85-1.94,4.29-3.25.5-.41,1.01-.74,1.56-1.01s1.13-.41,1.76-.41Z"/></g><g class="cls-2"><path class="cls-1" d="M537.83,50.79c0,7.17-1.21,13.82-3.62,19.95s-5.82,11.43-10.21,15.89-9.68,7.97-15.86,10.52c-6.18,2.55-13.03,3.82-20.56,3.82s-14.38-1.27-20.56-3.82c-6.18-2.55-11.48-6.05-15.89-10.52s-7.83-9.76-10.25-15.89c-2.41-6.13-3.62-12.78-3.62-19.95s1.21-13.81,3.62-19.92c2.41-6.11,5.83-11.4,10.25-15.86s9.72-7.97,15.89-10.52c6.18-2.55,13.03-3.82,20.56-3.82s14.38,1.27,20.56,3.82c6.18,2.55,11.46,6.07,15.86,10.55s7.8,9.78,10.21,15.89c2.41,6.11,3.62,12.73,3.62,19.85ZM517.06,50.79c0-5.14-.68-9.75-2.03-13.83-1.35-4.08-3.3-7.55-5.85-10.42-2.55-2.86-5.64-5.05-9.27-6.56-3.63-1.51-7.74-2.27-12.34-2.27s-8.73.76-12.38,2.27c-3.65,1.51-6.75,3.7-9.3,6.56-2.55,2.86-4.5,6.34-5.85,10.42-1.35,4.08-2.03,8.69-2.03,13.83s.68,9.82,2.03,13.9c1.35,4.08,3.3,7.54,5.85,10.38,2.55,2.84,5.65,5.02,9.3,6.53s7.78,2.27,12.38,2.27,8.71-.75,12.34-2.27c3.63-1.51,6.72-3.69,9.27-6.53,2.55-2.84,4.5-6.3,5.85-10.38,1.35-4.08,2.03-8.71,2.03-13.9Z"/><path class="cls-1" d="M618.21,62.15c.74,1.67,1.46,3.38,2.13,5.14.68-1.8,1.4-3.56,2.16-5.28.77-1.71,1.58-3.36,2.44-4.94l27.26-52.15c.41-.77.83-1.36,1.29-1.79.45-.43.93-.74,1.45-.95.52-.2,1.1-.33,1.76-.37s1.43-.07,2.33-.07h15.42v98.14h-17.92v-60.26c0-1.22.03-2.55.1-3.99.07-1.44.17-2.93.3-4.46l-28,53.23c-1.53,2.93-3.9,4.4-7.1,4.4h-2.84c-1.58,0-2.98-.37-4.19-1.12s-2.19-1.84-2.91-3.28l-28.2-53.36c.14,1.53.25,3.03.34,4.5.09,1.47.14,2.83.14,4.09v60.26h-17.92V1.75h15.42c.86,0,1.62.02,2.3.07.68.04,1.27.17,1.79.37.52.2.99.52,1.42.95.43.43.85,1.03,1.25,1.79l27.46,52.35c.81,1.58,1.59,3.2,2.33,4.87Z"/><path class="cls-1" d="M760.44,62.15c.74,1.67,1.46,3.38,2.13,5.14.68-1.8,1.4-3.56,2.16-5.28.77-1.71,1.58-3.36,2.44-4.94l27.26-52.15c.41-.77.83-1.36,1.29-1.79.45-.43.93-.74,1.45-.95.52-.2,1.1-.33,1.76-.37s1.43-.07,2.33-.07h15.42v98.14h-17.92v-60.26c0-1.22.03-2.55.1-3.99.07-1.44.17-2.93.3-4.46l-28,53.23c-1.53,2.93-3.9,4.4-7.1,4.4h-2.84c-1.58,0-2.98-.37-4.19-1.12s-2.19-1.84-2.91-3.28l-28.2-53.36c.14,1.53.25,3.03.34,4.5.09,1.47.14,2.83.14,4.09v60.26h-17.92V1.75h15.42c.86,0,1.62.02,2.3.07.68.04,1.27.17,1.79.37.52.2.99.52,1.42.95.43.43.85,1.03,1.25,1.79l27.46,52.35c.81,1.58,1.59,3.2,2.33,4.87Z"/><path class="cls-1" d="M890.88,83.66c3.29,0,6.24-.55,8.86-1.66,2.61-1.1,4.82-2.67,6.63-4.7,1.8-2.03,3.18-4.49,4.13-7.37.95-2.89,1.42-6.13,1.42-9.74V1.75h20.29v58.44c0,5.95-.96,11.42-2.88,16.4-1.92,4.98-4.66,9.28-8.22,12.88-3.56,3.61-7.89,6.43-12.99,8.46-5.1,2.03-10.84,3.04-17.25,3.04s-12.16-1.01-17.28-3.04c-5.12-2.03-9.46-4.85-13.02-8.46-3.56-3.61-6.3-7.9-8.22-12.88-1.92-4.98-2.87-10.45-2.87-16.4V1.75h20.29v58.44c0,3.61.47,6.85,1.42,9.74.95,2.89,2.32,5.34,4.12,7.37,1.8,2.03,4.01,3.6,6.63,4.7,2.61,1.11,5.59,1.66,8.93,1.66Z"/><path class="cls-1" d="M977.96,1.85c.61.07,1.16.23,1.66.47.5.25.97.58,1.42.98.45.41.95.95,1.49,1.62l49.24,62.56c-.18-1.71-.32-3.38-.41-5-.09-1.62-.13-3.16-.13-4.6V1.75h17.92v98.14h-10.48c-1.58,0-2.91-.26-3.99-.78s-2.14-1.41-3.18-2.67l-48.9-62.16c.13,1.58.24,3.12.3,4.63.07,1.51.1,2.92.1,4.23v56.75h-17.92V1.75h10.69c.86,0,1.59.03,2.2.1Z"/><path class="cls-1" d="M1103.66,99.89h-20.43V1.75h20.43v98.14Z"/><path class="cls-1" d="M1207.2,1.75v16.37h-28.68v81.77h-20.36V18.12h-28.68V1.75h77.71Z"/></g><g class="cls-2"><path class="cls-1" d="M1277.33,62.22v37.67h-20.29v-37.67l-35.64-60.47h17.86c1.76,0,3.17.42,4.23,1.25,1.06.83,1.9,1.91,2.54,3.21l16.1,30.91c1.08,2.08,2.06,4.01,2.94,5.82.88,1.8,1.63,3.61,2.27,5.41,1.26-3.47,2.95-7.21,5.07-11.23l15.96-30.91c.54-1.08,1.35-2.1,2.43-3.04,1.08-.95,2.48-1.42,4.19-1.42h17.99l-35.64,60.47Z"/></g></g><g class="cls-2"><g class="cls-2"><path class="cls-1" d="M369.61,168.83c-.36.66-.92.99-1.67.99-.45,0-.96-.17-1.53-.5-.57-.33-1.27-.7-2.1-1.11-.83-.41-1.81-.78-2.95-1.13-1.14-.35-2.5-.52-4.06-.52-1.35,0-2.57.17-3.65.52s-2.01.82-2.77,1.42c-.77.6-1.35,1.3-1.76,2.1s-.61,1.66-.61,2.59c0,1.17.34,2.15,1.01,2.93s1.57,1.46,2.68,2.03c1.11.57,2.37,1.07,3.79,1.51,1.41.44,2.86.9,4.35,1.4s2.94,1.04,4.35,1.64c1.41.6,2.68,1.35,3.79,2.26,1.11.9,2.01,2.01,2.68,3.31.68,1.31,1.01,2.88,1.01,4.71,0,2.11-.38,4.05-1.13,5.84-.75,1.79-1.86,3.34-3.34,4.64-1.47,1.31-3.28,2.34-5.41,3.09-2.13.75-4.6,1.13-7.4,1.13-3.19,0-6.07-.52-8.66-1.55-2.59-1.04-4.78-2.37-6.58-3.99l1.89-3.07c.24-.39.53-.69.86-.9.33-.21.75-.32,1.26-.32.54,0,1.11.21,1.71.63.6.42,1.33.89,2.19,1.4.86.51,1.9.98,3.13,1.4,1.23.42,2.77.63,4.6.63,1.56,0,2.93-.2,4.1-.61,1.17-.4,2.15-.95,2.93-1.64.78-.69,1.36-1.49,1.74-2.39.38-.9.56-1.86.56-2.88,0-1.26-.34-2.31-1.01-3.13-.68-.83-1.57-1.53-2.68-2.12-1.11-.59-2.38-1.1-3.81-1.53-1.43-.44-2.89-.89-4.37-1.38-1.49-.48-2.95-1.03-4.37-1.64-1.43-.62-2.7-1.39-3.81-2.32-1.11-.93-2.01-2.08-2.68-3.45-.68-1.37-1.01-3.03-1.01-4.98,0-1.74.36-3.42,1.08-5.03.72-1.61,1.77-3.02,3.16-4.24,1.38-1.22,3.08-2.19,5.1-2.91,2.01-.72,4.31-1.08,6.9-1.08,3.01,0,5.7.47,8.09,1.42,2.39.95,4.46,2.25,6.2,3.9l-1.8,2.93Z"/><path class="cls-1" d="M413.84,169.42c-.24.33-.48.59-.72.77-.24.18-.57.27-.99.27-.45,0-.95-.19-1.49-.56-.54-.38-1.21-.79-2.01-1.24-.8-.45-1.77-.87-2.93-1.24-1.16-.38-2.58-.56-4.26-.56-2.25,0-4.24.4-5.95,1.2s-3.15,1.95-4.31,3.45c-1.16,1.5-2.03,3.32-2.62,5.46-.59,2.13-.88,4.53-.88,7.17s.32,5.22.95,7.37c.63,2.15,1.53,3.95,2.68,5.41,1.16,1.46,2.55,2.57,4.19,3.34,1.64.77,3.48,1.15,5.52,1.15s3.56-.23,4.82-.7c1.26-.46,2.31-.98,3.13-1.55.83-.57,1.52-1.09,2.07-1.56.56-.46,1.1-.7,1.65-.7.66,0,1.17.26,1.53.77l2.25,2.93c-.99,1.23-2.12,2.28-3.38,3.16-1.26.87-2.62,1.6-4.08,2.19-1.46.59-2.98,1.02-4.58,1.29-1.59.27-3.22.41-4.87.41-2.86,0-5.51-.53-7.96-1.58-2.45-1.05-4.58-2.58-6.38-4.58-1.8-2-3.22-4.46-4.24-7.37-1.02-2.92-1.53-6.24-1.53-9.96,0-3.4.47-6.54,1.42-9.42.95-2.88,2.33-5.37,4.15-7.46,1.82-2.09,4.06-3.72,6.72-4.89,2.66-1.17,5.72-1.76,9.18-1.76,3.22,0,6.05.52,8.5,1.56,2.45,1.04,4.62,2.5,6.52,4.4l-2.12,2.88Z"/><path class="cls-1" d="M435.31,146.96c0,.78-.16,1.51-.47,2.19-.32.68-.74,1.28-1.26,1.8-.53.53-1.14.94-1.85,1.24-.71.3-1.45.45-2.23.45s-1.51-.15-2.19-.45-1.27-.71-1.78-1.24c-.51-.53-.92-1.13-1.22-1.8-.3-.68-.45-1.4-.45-2.19s.15-1.53.45-2.23c.3-.71.71-1.32,1.22-1.85.51-.53,1.1-.94,1.78-1.24s1.4-.45,2.19-.45,1.53.15,2.23.45c.71.3,1.32.71,1.85,1.24.53.53.95,1.14,1.26,1.85.32.71.47,1.45.47,2.23ZM433.59,161.3v45.68h-8.03v-45.68h8.03Z"/><path class="cls-1" d="M483.82,200.58c-.99,1.2-2.18,2.25-3.56,3.13-1.38.89-2.86,1.62-4.44,2.19-1.58.57-3.21,1-4.89,1.29-1.68.29-3.35.43-5,.43-3.16,0-6.06-.53-8.73-1.6-2.66-1.07-4.96-2.63-6.9-4.69-1.94-2.06-3.45-4.61-4.53-7.64-1.08-3.04-1.62-6.52-1.62-10.46,0-3.19.49-6.16,1.47-8.93.98-2.76,2.38-5.16,4.22-7.19,1.83-2.03,4.07-3.62,6.72-4.78,2.65-1.16,5.62-1.74,8.93-1.74,2.74,0,5.27.46,7.6,1.38,2.33.92,4.34,2.24,6.04,3.97,1.7,1.73,3.03,3.86,3.99,6.4.96,2.54,1.44,5.43,1.44,8.68,0,1.26-.14,2.11-.41,2.53-.27.42-.78.63-1.53.63h-30.53c.09,2.89.49,5.4,1.19,7.53.71,2.13,1.69,3.91,2.95,5.34,1.26,1.43,2.77,2.5,4.51,3.2,1.74.71,3.7,1.06,5.86,1.06,2.01,0,3.75-.23,5.21-.7,1.46-.46,2.71-.97,3.77-1.51,1.05-.54,1.93-1.04,2.64-1.51.71-.46,1.31-.7,1.83-.7.66,0,1.17.26,1.53.77l2.25,2.93ZM477.33,179.16c0-1.86-.26-3.57-.79-5.12-.53-1.55-1.29-2.88-2.3-4.01-1.01-1.13-2.23-2-3.67-2.62-1.44-.62-3.08-.93-4.91-.93-3.85,0-6.89,1.12-9.13,3.36-2.24,2.24-3.63,5.34-4.17,9.31h24.98Z"/><path class="cls-1" d="M501.95,167.93c.99-1.11,2.04-2.12,3.16-3.02,1.11-.9,2.29-1.67,3.54-2.32,1.25-.65,2.57-1.14,3.97-1.49,1.4-.35,2.91-.52,4.53-.52,2.5,0,4.7.41,6.61,1.24,1.91.83,3.5,2,4.78,3.52,1.28,1.52,2.25,3.34,2.91,5.48.66,2.13.99,4.49.99,7.08v29.08h-8.07v-29.08c0-3.46-.79-6.14-2.37-8.05-1.58-1.91-3.98-2.86-7.19-2.86-2.38,0-4.59.57-6.65,1.71-2.06,1.14-3.96,2.69-5.7,4.64v33.64h-8.07v-45.68h4.82c1.14,0,1.85.56,2.12,1.67l.63,4.96Z"/><path class="cls-1" d="M576.48,169.42c-.24.33-.48.59-.72.77-.24.18-.57.27-.99.27-.45,0-.95-.19-1.49-.56-.54-.38-1.21-.79-2.01-1.24-.8-.45-1.77-.87-2.93-1.24-1.16-.38-2.58-.56-4.26-.56-2.25,0-4.24.4-5.95,1.2s-3.15,1.95-4.31,3.45c-1.16,1.5-2.03,3.32-2.62,5.46-.59,2.13-.88,4.53-.88,7.17s.32,5.22.95,7.37c.63,2.15,1.53,3.95,2.68,5.41,1.16,1.46,2.55,2.57,4.19,3.34,1.64.77,3.48,1.15,5.52,1.15s3.56-.23,4.82-.7c1.26-.46,2.31-.98,3.13-1.55.83-.57,1.52-1.09,2.07-1.56.56-.46,1.1-.7,1.65-.7.66,0,1.17.26,1.53.77l2.25,2.93c-.99,1.23-2.12,2.28-3.38,3.16-1.26.87-2.62,1.6-4.08,2.19-1.46.59-2.98,1.02-4.58,1.29-1.59.27-3.22.41-4.87.41-2.86,0-5.51-.53-7.96-1.58-2.45-1.05-4.58-2.58-6.38-4.58-1.8-2-3.22-4.46-4.24-7.37-1.02-2.92-1.53-6.24-1.53-9.96,0-3.4.47-6.54,1.42-9.42.95-2.88,2.33-5.37,4.15-7.46,1.82-2.09,4.06-3.72,6.72-4.89,2.66-1.17,5.72-1.76,9.18-1.76,3.22,0,6.05.52,8.5,1.56,2.45,1.04,4.62,2.5,6.52,4.4l-2.12,2.88Z"/><path class="cls-1" d="M624.01,200.58c-.99,1.2-2.18,2.25-3.56,3.13-1.38.89-2.86,1.62-4.44,2.19-1.58.57-3.21,1-4.89,1.29-1.68.29-3.35.43-5,.43-3.16,0-6.06-.53-8.73-1.6-2.66-1.07-4.96-2.63-6.9-4.69-1.94-2.06-3.45-4.61-4.53-7.64-1.08-3.04-1.62-6.52-1.62-10.46,0-3.19.49-6.16,1.47-8.93.98-2.76,2.38-5.16,4.22-7.19,1.83-2.03,4.07-3.62,6.72-4.78,2.65-1.16,5.62-1.74,8.93-1.74,2.74,0,5.27.46,7.6,1.38,2.33.92,4.34,2.24,6.04,3.97,1.7,1.73,3.03,3.86,3.99,6.4.96,2.54,1.44,5.43,1.44,8.68,0,1.26-.14,2.11-.41,2.53-.27.42-.78.63-1.53.63h-30.53c.09,2.89.49,5.4,1.19,7.53.71,2.13,1.69,3.91,2.95,5.34,1.26,1.43,2.77,2.5,4.51,3.2,1.74.71,3.7,1.06,5.86,1.06,2.01,0,3.75-.23,5.21-.7,1.46-.46,2.71-.97,3.77-1.51,1.05-.54,1.93-1.04,2.64-1.51.71-.46,1.31-.7,1.83-.7.66,0,1.17.26,1.53.77l2.25,2.93ZM617.51,179.16c0-1.86-.26-3.57-.79-5.12-.53-1.55-1.29-2.88-2.3-4.01-1.01-1.13-2.23-2-3.67-2.62-1.44-.62-3.08-.93-4.91-.93-3.85,0-6.89,1.12-9.13,3.36-2.24,2.24-3.63,5.34-4.17,9.31h24.98Z"/><path class="cls-1" d="M657.64,206.98v-45.68h4.82c1.14,0,1.85.56,2.12,1.67l.59,4.69c1.68-2.07,3.58-3.77,5.68-5.1,2.1-1.32,4.54-1.98,7.3-1.98,3.07,0,5.55.86,7.46,2.57,1.91,1.71,3.28,4.03,4.13,6.94.66-1.65,1.51-3.08,2.55-4.28,1.04-1.2,2.2-2.19,3.5-2.98,1.29-.78,2.67-1.35,4.12-1.71,1.46-.36,2.94-.54,4.44-.54,2.41,0,4.55.38,6.43,1.15,1.88.77,3.47,1.89,4.78,3.36s2.31,3.28,3,5.43c.69,2.15,1.04,4.61,1.04,7.37v29.08h-8.07v-29.08c0-3.58-.78-6.29-2.34-8.14-1.56-1.85-3.82-2.77-6.76-2.77-1.32,0-2.58.23-3.76.7-1.19.47-2.23,1.15-3.13,2.05-.9.9-1.62,2.04-2.14,3.4-.53,1.37-.79,2.95-.79,4.76v29.08h-8.07v-29.08c0-3.67-.74-6.4-2.21-8.21-1.47-1.8-3.62-2.71-6.45-2.71-1.98,0-3.82.54-5.5,1.6-1.68,1.07-3.23,2.52-4.64,4.35v34.04h-8.07Z"/><path class="cls-1" d="M769.38,161.3v45.68h-4.78c-1.14,0-1.86-.56-2.17-1.67l-.63-4.92c-1.98,2.2-4.21,3.96-6.67,5.3-2.47,1.34-5.29,2.01-8.48,2.01-2.5,0-4.7-.41-6.61-1.24-1.91-.83-3.51-1.99-4.8-3.49-1.29-1.5-2.26-3.32-2.91-5.46-.65-2.13-.97-4.49-.97-7.08v-29.13h8.03v29.13c0,3.46.79,6.13,2.37,8.03,1.58,1.89,3.99,2.84,7.24,2.84,2.37,0,4.59-.56,6.65-1.69,2.06-1.13,3.96-2.68,5.7-4.67v-33.64h8.03Z"/><path class="cls-1" d="M808.7,168.83c-.36.66-.92.99-1.67.99-.45,0-.96-.17-1.53-.5s-1.27-.7-2.1-1.11-1.81-.78-2.95-1.13-2.5-.52-4.06-.52c-1.35,0-2.57.17-3.65.52s-2.01.82-2.77,1.42c-.77.6-1.35,1.3-1.76,2.1-.41.8-.61,1.66-.61,2.59,0,1.17.34,2.15,1.01,2.93.68.78,1.57,1.46,2.68,2.03s2.37,1.07,3.79,1.51c1.41.44,2.86.9,4.35,1.4,1.49.5,2.94,1.04,4.35,1.64,1.41.6,2.67,1.35,3.79,2.26,1.11.9,2.01,2.01,2.68,3.31.68,1.31,1.01,2.88,1.01,4.71,0,2.11-.38,4.05-1.13,5.84-.75,1.79-1.86,3.34-3.34,4.64-1.47,1.31-3.28,2.34-5.41,3.09-2.13.75-4.6,1.13-7.4,1.13-3.19,0-6.07-.52-8.66-1.55s-4.78-2.37-6.58-3.99l1.89-3.07c.24-.39.53-.69.86-.9.33-.21.75-.32,1.26-.32.54,0,1.11.21,1.71.63.6.42,1.33.89,2.19,1.4.86.51,1.9.98,3.13,1.4,1.23.42,2.77.63,4.6.63,1.56,0,2.93-.2,4.1-.61,1.17-.4,2.15-.95,2.93-1.64.78-.69,1.36-1.49,1.74-2.39.38-.9.56-1.86.56-2.88,0-1.26-.34-2.31-1.01-3.13-.68-.83-1.57-1.53-2.68-2.12-1.11-.59-2.38-1.1-3.81-1.53-1.43-.44-2.89-.89-4.37-1.38-1.49-.48-2.95-1.03-4.37-1.64-1.43-.62-2.7-1.39-3.81-2.32-1.11-.93-2.01-2.08-2.68-3.45-.68-1.37-1.01-3.03-1.01-4.98,0-1.74.36-3.42,1.08-5.03.72-1.61,1.77-3.02,3.16-4.24,1.38-1.22,3.08-2.19,5.1-2.91,2.01-.72,4.31-1.08,6.9-1.08,3.01,0,5.7.47,8.09,1.42,2.39.95,4.46,2.25,6.2,3.9l-1.8,2.93Z"/><path class="cls-1" d="M858.2,200.58c-.99,1.2-2.18,2.25-3.56,3.13-1.38.89-2.86,1.62-4.44,2.19s-3.21,1-4.89,1.29-3.35.43-5,.43c-3.16,0-6.06-.53-8.72-1.6-2.66-1.07-4.96-2.63-6.9-4.69-1.94-2.06-3.45-4.61-4.53-7.64-1.08-3.04-1.62-6.52-1.62-10.46,0-3.19.49-6.16,1.47-8.93.98-2.76,2.38-5.16,4.22-7.19,1.83-2.03,4.07-3.62,6.72-4.78,2.65-1.16,5.62-1.74,8.93-1.74,2.74,0,5.27.46,7.6,1.38,2.33.92,4.34,2.24,6.04,3.97,1.7,1.73,3.03,3.86,3.99,6.4.96,2.54,1.44,5.43,1.44,8.68,0,1.26-.13,2.11-.41,2.53-.27.42-.78.63-1.53.63h-30.53c.09,2.89.49,5.4,1.2,7.53.71,2.13,1.69,3.91,2.95,5.34s2.77,2.5,4.51,3.2c1.74.71,3.7,1.06,5.86,1.06,2.01,0,3.75-.23,5.21-.7,1.46-.46,2.71-.97,3.76-1.51,1.05-.54,1.93-1.04,2.64-1.51.71-.46,1.31-.7,1.83-.7.66,0,1.17.26,1.53.77l2.25,2.93ZM851.71,179.16c0-1.86-.26-3.57-.79-5.12-.53-1.55-1.29-2.88-2.3-4.01-1.01-1.13-2.23-2-3.67-2.62-1.44-.62-3.08-.93-4.92-.93-3.85,0-6.89,1.12-9.13,3.36-2.24,2.24-3.63,5.34-4.17,9.31h24.98Z"/><path class="cls-1" d="M906.31,161.3v45.68h-4.78c-1.14,0-1.86-.56-2.16-1.67l-.63-4.92c-1.98,2.2-4.21,3.96-6.67,5.3-2.46,1.34-5.29,2.01-8.48,2.01-2.5,0-4.7-.41-6.61-1.24s-3.51-1.99-4.8-3.49c-1.29-1.5-2.26-3.32-2.91-5.46s-.97-4.49-.97-7.08v-29.13h8.03v29.13c0,3.46.79,6.13,2.37,8.03,1.58,1.89,3.99,2.84,7.24,2.84,2.37,0,4.59-.56,6.65-1.69,2.06-1.13,3.96-2.68,5.7-4.67v-33.64h8.03Z"/><path class="cls-1" d="M919.03,206.98v-45.68h4.82c1.14,0,1.85.56,2.12,1.67l.59,4.69c1.68-2.07,3.58-3.77,5.68-5.1,2.1-1.32,4.54-1.98,7.3-1.98,3.07,0,5.55.86,7.46,2.57,1.91,1.71,3.28,4.03,4.13,6.94.66-1.65,1.51-3.08,2.55-4.28,1.04-1.2,2.2-2.19,3.5-2.98,1.29-.78,2.67-1.35,4.12-1.71,1.46-.36,2.94-.54,4.44-.54,2.41,0,4.55.38,6.43,1.15,1.88.77,3.47,1.89,4.78,3.36s2.31,3.28,3,5.43c.69,2.15,1.04,4.61,1.04,7.37v29.08h-8.07v-29.08c0-3.58-.78-6.29-2.34-8.14-1.56-1.85-3.82-2.77-6.76-2.77-1.32,0-2.58.23-3.76.7-1.19.47-2.23,1.15-3.13,2.05-.9.9-1.62,2.04-2.14,3.4-.53,1.37-.79,2.95-.79,4.76v29.08h-8.07v-29.08c0-3.67-.74-6.4-2.21-8.21-1.47-1.8-3.62-2.71-6.45-2.71-1.98,0-3.82.54-5.5,1.6-1.68,1.07-3.23,2.52-4.64,4.35v34.04h-8.07Z"/></g></g><path class="cls-1" d="M1.14,50.73C1.41,24.67,21.64,3.6,47.62,2.33c27.54-1.35,50.09,18.18,51.51,46.2,1.29,25.55,8.65,48.79,30.29,62.79,14.04,9.08,31.53,14.98,48.18,17.4,29.65,4.3,49.89,23.38,48.94,51.15-.92,26.73-22.14,47.45-48.92,47.76-26.95.31-47.63-19.95-49.63-48.64-3.3-47.18-31.45-75.24-78.73-78.48C20.4,98.53.85,78.3,1.14,50.73Z"/><path class="cls-1" d="M223.2,100.47c-27.59.3-49.5-20.87-49.69-48.03-.2-28.26,21.46-50.34,49.31-50.26,27.08.07,49.15,22.08,49.2,49.04.04,27.25-21.47,48.96-48.82,49.25h0Z"/></svg>