<?xml version="1.0" encoding="UTF-8"?><svg id="Layer_1" xmlns="http://www.w3.org/2000/svg" viewBox="0 0 977.35 621.38"><defs><style>.cls-1{letter-spacing:.1em;}.cls-2{letter-spacing:.08em;}.cls-3{font-family:Lato-Heavy, Lato;font-size:135.27px;font-weight:800;}.cls-3,.cls-4,.cls-5{fill:#fff;}.cls-4{font-family:Lato-Regular, Lato;font-size:90.18px;}.cls-6{letter-spacing:.06em;}.cls-5{stroke-width:0px;}</style></defs><text class="cls-3" transform="translate(-3.37 513.89)"><tspan class="cls-2" x="0" y="0">C</tspan><tspan class="cls-1" x="100.5" y="0">OMMUNIT</tspan><tspan class="cls-6" x="890.46" y="0">Y</tspan></text><text class="cls-4" transform="translate(164.82 620.98)"><tspan x="0" y="0">science museum</tspan></text><path class="cls-5" d="m279.55,73.86c.39-37.1,29.18-67.08,66.16-68.89,39.19-1.92,71.29,25.88,73.31,65.75,1.84,36.36,12.3,69.44,43.11,89.37,19.98,12.93,44.87,21.32,68.57,24.76,42.2,6.12,71.01,33.28,69.65,72.8-1.31,38.04-31.51,67.53-69.63,67.97-38.36.44-67.79-28.39-70.64-69.22-4.7-67.15-44.76-107.09-112.05-111.7-41.06-2.81-68.89-31.61-68.48-70.84Z"/><path class="cls-5" d="m595.61,144.65c-39.27.42-70.44-29.71-70.72-68.35-.29-40.22,30.54-71.65,70.18-71.54,38.54.11,69.96,31.42,70.02,69.79.06,38.79-30.56,69.68-69.48,70.1Z"/></svg>