<?xml version="1.0" encoding="UTF-8"?><svg id="Layer_1" xmlns="http://www.w3.org/2000/svg" viewBox="0 0 1312.35 227.38"><defs><style>.cls-1{font-family:Lato-Regular, Lato;font-size:90.18px;}.cls-2{letter-spacing:.1em;}.cls-3{font-family:Lato-Heavy, Lato;font-size:135.27px;font-weight:800;}.cls-4{letter-spacing:.08em;}.cls-5{stroke-width:0px;}.cls-6{letter-spacing:.06em;}</style></defs><text class="cls-3" transform="translate(332.22 99.89)"><tspan class="cls-4" x="0" y="0">C</tspan><tspan class="cls-2" x="100.5" y="0">OMMUNIT</tspan><tspan class="cls-6" x="890.46" y="0">Y</tspan></text><text class="cls-1" transform="translate(336.65 206.98)"><tspan x="0" y="0">science museum</tspan></text><path class="cls-5" d="m1.14,50.73C1.41,24.67,21.64,3.6,47.62,2.33c27.54-1.35,50.09,18.18,51.51,46.2,1.29,25.55,8.65,48.79,30.29,62.79,14.04,9.08,31.53,14.98,48.18,17.4,29.65,4.3,49.89,23.38,48.94,51.15-.92,26.73-22.14,47.45-48.92,47.76-26.95.31-47.63-19.95-49.63-48.64-3.3-47.18-31.45-75.24-78.73-78.48C20.4,98.53.85,78.3,1.14,50.73Z"/><path class="cls-5" d="m223.2,100.47c-27.59.3-49.5-20.87-49.69-48.03-.2-28.26,21.46-50.34,49.31-50.26,27.08.07,49.15,22.08,49.2,49.04.04,27.25-21.47,48.96-48.82,49.25Z"/></svg>